<!-- Generator: Adobe Illustrator 24.1.0, SVG Export Plug-In  -->
<svg xmlns="http://www.w3.org/2000/svg" xml:space="preserve" width="96.6" height="134.7" viewBox="0,0,96.6,134.7"><style>.st6{fill:#582587}</style><path d="M59.5 24.9s6.9 1.4 9.4 3.5 2.5 1.3 2.5 1.3l8.2-8.5 4.7-1.2 3.8 1.8 1.8 3.1v2.9l-3.3 4-6.2 3.7-3 3.3-2 4 .8 5.1 2.3 5.8 3.7 5.1 4.4 5.8 5.8 11.2 1.8 8.2.7 9.2-4.2 13-10.2 9.3-9.2 5.2-6.3 4-3.8 2.2-3.5 4.2-5.8 1.8h-7.7l-6.5-4.3-10.2-6.2-6.7-3.5-6.7-4.2-7.3-7L2.1 99 .9 89.5 2.6 79 6 69.8 14.3 59l4.7-7.3 1.5-10.5-2.7-4.3-6.8-4-4-4.2-1-3.9 2.3-3.5 5.2-1.3 5.7 3.5 4 4.2 2.2 2.3 4.7-2.8 2.8-1.5 7.6-1.3 8.8-.8 7.2.5 3 .8z" style="fill: rgb(196, 230, 243);"></path><path d="M94.4 84.1c0 18.1-1 20.1-8.5 26.3-25.2 0-43.9-14.2-43.9-32.3s-5.8-56.8 19.2-53.2c1.1.2 6.5 5 10.2 4.9 3.3-.1 6.3-8.2 9.8-8.8 4.9-.9 9.5 2.1 8.4 6.4-1.5 5.4-9.6 7.7-11.2 9.2-4.8 4.6-1.9 9-1 13.5 1.2 6.2 7.5 10.4 9.5 14.7 5.4 11.8 7.5 10.7 7.5 19.3z" style="fill: rgb(170, 217, 228);"></path><path d="M54.9 11.7S53 4.9 51.1 3 47.8.9 45.9 3C44 5.1 42.3 9.7 42 10.7s1.2 1.8 2.3 1.8c1.1 0 6.2.5 7.8.3 1.5-.1 2.8-1.1 2.8-1.1z" style="fill: rgb(217, 28, 121);"></path><path d="M41.3 12s3.6.8 7.6.5 5.8-.8 5.8-.8 2.9 8 3.1 10.1 0 3.1 0 3.1l-19.2-.4L41.3 12z" style="fill: rgb(252, 227, 191);"></path><path d="M37.9 24.5s-4.8 30.4-5 35.4c-.2 5-.3 9.5 6.7 11.6s18.6.8 21.9-2.4 2.3-6.9 2.2-10.1-4.8-32.4-5.3-33.6-6.6-1.8-9.1-1.8-11.4.9-11.4.9z" style="fill: rgb(248, 182, 45);"></path><path d="M33.5 67.3s4.7 6.7 14.8 5.6c10.2-1.1 15.1-6.3 15.1-6.3s.9 6.7-1.6 12-9.1 9.4-15.7 8.6c-6.5-.8-11.1-6.8-11.9-9.3-.8-2.6-2-9.5-2-9.5l1.3-1.1z" style="fill: rgb(143, 195, 31);"></path><path d="M82.4 56.2c-1.9-2.1-3.4-4.8-4.4-7.9-2.9-8.7 2.4-11.1 5.2-12.4.2-.1.4-.2.5-.2 3.2-1.5 7.1-4.7 7.9-8.6.3-1.6.2-3.9-2.1-6.3-1.6-1.7-3.4-2.4-5.5-2.3-4.7.3-9.5 5.1-12.9 9.6-1.7-1.4-5.1-3.4-11.4-4.6-2.2-10.6-5-19.7-8.5-22.5-.9-.7-1.9-1.1-2.9-1-1 0-2 .3-2.9 1C42 3.8 39.1 12.9 37 23.5c-6.3 1.2-9.7 3.2-11.4 4.6-3.5-4.5-8.3-9.3-12.9-9.6-2.1-.1-4 .7-5.5 2.3-2.2 2.4-2.4 4.8-2.1 6.3.7 3.9 4.7 7 7.9 8.6.2.1.3.2.5.2 2.8 1.3 8.1 3.7 5.2 12.4-1 3.1-2.5 5.8-4.4 7.9C-5.3 77.9.5 97.3 1.8 101c3.9 10.7 14.7 16.9 17.9 18.6 6 3.1 11.2 6.2 15.8 9.5.6.4 1.2.9 1.8 1.4 2.6 1.9 4.5 4.1 10.6 4.2h.6c6.1-.1 8.1-2.3 10.6-4.2.6-.4 1.2-.9 1.8-1.4 4.7-3.3 9.8-6.4 15.8-9.5 3.2-1.6 13.9-7.8 17.9-18.6 1.5-3.7 7.3-23.1-12.2-44.8zM47.3 3.4c.6-.4.9-.4 1-.4.1 0 .4-.1 1 .4 1.4 1.1 2.7 3.7 3.9 7.4-3.2.3-6.7.3-9.9-.1 1.3-3.7 2.7-6.2 4-7.3zm-4.5 10.2c1.9.2 3.9.4 5.9.4 1.8 0 3.5-.1 5.2-.3.9 2.9 1.8 5.4 2.6 9.3-2.3-.3-4.8-.5-7.7-.5H48c-2.9 0-5.5.2-7.7.5.7-3.9 1.6-6.4 2.5-9.4zm8.2 12 2.5 45.2c-1.6.3-3.3.5-5.2.5-1.8 0-3.6-.2-5.1-.5l2.5-45.3c.8 0 1.7-.1 2.6-.1 1 .1 1.9.1 2.7.2zm-9.8 44.7c-3.9-1.2-6.4-3.2-6.8-5.3 0-.6.1-1.2.1-1.8 1.2-12.9 2.9-26.3 5-37.2 1.3-.2 2.6-.3 4.1-.4l-2.4 44.7zm7.1 4c5.8 0 10.9-1.6 13.9-4.2-.4 5.2-1.9 9.2-4.6 11.9-3.5 3.5-8 3.8-9.4 3.8-1.4 0-5.9-.3-9.4-3.8-2.7-2.7-4.2-6.7-4.6-11.9 3.2 2.6 8.3 4.2 14.1 4.2zm7.2-4-2.4-44.6c1.5.1 2.8.3 4 .4 2.1 10.9 3.9 24.3 5 37.2.1.6.1 1.2.1 1.8-.4 2-2.9 4-6.7 5.2zM92 100c-3.6 9.7-13.5 15.4-16.4 16.9-6.1 3.1-11.4 6.3-16.2 9.7-.7.5-1.3.9-1.9 1.4-2.4 1.8-4.2 3.5-9.2 3.6-4.9-.1-6.7-1.8-9.2-3.6-.6-.5-1.2-.9-1.9-1.4-4.8-3.4-10.1-6.5-16.2-9.7-2.9-1.5-12.8-7.2-16.4-16.9-1.2-3.4-6.5-21.4 11.8-41.8 2.1-2.4 3.9-5.5 5-8.9 3.7-11.2-4.2-14.9-6.8-16.1-.2-.1-.3-.2-.5-.2-2.7-1.3-5.7-3.8-6.2-6.4-.2-1.3.2-2.5 1.3-3.7.9-1 1.9-1.4 3.1-1.4 3.1.2 7.3 3.7 11.7 9.7l1.2 1.7 1.2-1.7s2.3-2.8 9.8-4.5C33.6 40.6 32 56.1 31.4 63c0 .5-.1 1-.1 1.5v.1c-.5 8.8 1.3 15.3 5.5 19.5 4.1 4.1 9.1 4.6 11.2 4.7H48.6c2.1 0 7.1-.6 11.2-4.7 4.2-4.2 6-10.8 5.5-19.5v-.1c0-.5-.1-1-.1-1.5-.6-6.9-2.2-22.4-4.8-36.3 7.5 1.7 9.7 4.5 9.8 4.5l1.2 1.7 1.2-1.7c4.4-6 8.7-9.5 11.7-9.7 1.2-.1 2.2.4 3.1 1.4 1.1 1.2 1.6 2.4 1.3 3.7-.5 2.6-3.6 5.1-6.2 6.4-.1.1-.3.1-.5.2-2.6 1.2-10.5 4.8-6.8 16.1 1.1 3.4 2.9 6.5 5 8.9C98.5 78.6 93.2 96.6 92 100z" class="st6"></path><path d="M66.6 89.6c2.8-2.7.7-4.8-.7-4.8-1 0-1.8 0-3.3 2.8-1 1.8-3.2 4.4-3.2 4.4s4.4.3 7.2-2.4zM37.1 92s-2.2-2.7-3.2-4.4c-1.5-2.8-2.2-2.8-3.3-2.8-1.4 0-3.5 2.1-.7 4.8s7.2 2.4 7.2 2.4zM79 68.3c.2-.4.3-.8.4-1.3.3-1.8.2-3.6-.8-5.9-1.2-2.9-3.4-6.6-7.2-7.2-2.1-.3-4.5 1.1-4.8 3.8-.2 1.8.4 3.5 1.3 5.2 1 1.8 1.9 3.2 3 4.4.4.5.8.9 1.2 1.2 1.2 1.1 2.2 1.7 3.1 1.9-.8.9-1.5 2.1-1.6 3.3 1.1-1.2 2.4-2.5 3.5-3.3 1.6-1 3.2-1.5 5.2-1.8-1-.4-2.1-.5-3.3-.3zm-.6-1.5c-.2.6-.4 1-.7 1.5.1-1 .2-2.1-.3-3.6-.5-1.8-.7-2.1-1.3-2.9.1.2.2.4.2.6.1.9-.3 1.7-1.1 1.8-.7.1-1.4-.5-1.6-1.4-.1-.9.3-1.7 1.1-1.8.4-.1.8.1 1.1.4-.7-.9-1.9-2.1-3.3-2.2-2.2-.1-3.3 1.4-3.2 3.1.1.6.5 1.8 1 2.9-.6-.8-1.2-1.6-1.6-2.7-2.1-5.5 3.1-7 5.3-5.6 1.9 1.2 2.6 2.6 3.5 4.6 1 1.9 1.3 3.8.9 5.3zM25.2 53.9c-3.8.6-6 4.3-7.2 7.2-.9 2.3-1 4.1-.8 5.9.1.5.2.9.4 1.3-1.2-.2-2.3-.1-3.3.2 1.9.4 3.6.8 5.2 1.8 1.2.7 2.4 2.1 3.5 3.3-.1-1.2-.8-2.4-1.6-3.3.9-.2 1.9-.8 3.1-1.9l1.2-1.2c1.1-1.2 2-2.6 3-4.4.9-1.7 1.5-3.3 1.3-5.2-.3-2.6-2.7-4-4.8-3.7zm2.6 8.5c-.4 1.1-1 1.9-1.6 2.7.5-1.1 1-2.2 1-2.9.2-1.6-.9-3.1-3.2-3.1-1.5.1-2.7 1.3-3.3 2.2.3-.3.7-.5 1.1-.4.7.1 1.2.9 1.1 1.8-.1.9-.9 1.5-1.6 1.4-.7-.1-1.2-.9-1.1-1.8 0-.2.1-.4.2-.6-.6.8-.8 1.2-1.3 2.9-.4 1.6-.4 2.6-.3 3.6-.3-.4-.5-.9-.7-1.5-.4-1.5-.1-3.3.8-5.4.9-1.9 1.6-3.3 3.5-4.6 2.3-1.4 7.5.1 5.4 5.7z" class="st6"></path><path d="M78.3 91.7c-.7-.1-3.1-.6-3.3.6-.3 1.3 2.1 1 2.7.9.4 0 .7 0 1 .1C76 104.5 63.4 113 48.3 113c-15.1 0-27.7-8.5-30.4-19.7.3-.1.7-.1 1-.1.7 0 3 .4 2.7-.9-.2-1.2-2.6-.7-3.3-.6-2.6.4-4.3 2.6-4 4.6.1.3.2.6.4.9-.1-1.5 1-3.2 2.7-3.8 1.1 12.5 14.6 23.2 30.7 23.3h.2c16.1-.1 29.5-10.8 30.7-23.3 1.7.6 2.8 2.3 2.7 3.8.2-.3.3-.6.4-.9.5-1.9-1.3-4.2-3.8-4.6z" class="st6"></path></svg>
